<?xml version="1.0" standalone="no"?>
<!DOCTYPE svg PUBLIC "-//W3C//DTD SVG 20010904//EN"
 "http://www.w3.org/TR/2001/REC-SVG-20010904/DTD/svg10.dtd">
<svg version="1.0" xmlns="http://www.w3.org/2000/svg"
 width="613.000000pt" height="613.000000pt" viewBox="0 0 613.000000 613.000000"
 preserveAspectRatio="xMidYMid meet">
<metadata>
Created by potrace 1.14, written by Peter Selinger 2001-2017
</metadata>
<g transform="translate(0.000000,613.000000) scale(0.100000,-0.100000)"
fill="#000000" stroke="none">
<path d="M2988 5485 c-2 -1 -34 -5 -73 -8 -38 -4 -81 -9 -95 -12 -36 -7 -73
-16 -85 -19 -5 -2 -27 -6 -47 -11 -21 -4 -38 -10 -38 -14 0 -4 -9 -7 -20 -8
-10 -1 -41 -12 -67 -24 -26 -12 -51 -21 -55 -21 -5 1 -8 -2 -8 -8 0 -5 -6 -10
-14 -10 -8 0 -16 -3 -18 -7 -1 -5 -29 -21 -60 -36 -32 -16 -58 -33 -58 -38 0
-5 -6 -9 -12 -9 -7 0 -28 -13 -47 -28 -47 -36 -211 -203 -211 -213 0 -4 -6
-14 -13 -21 -44 -44 -181 -284 -171 -299 3 -5 0 -9 -6 -9 -6 0 -9 -4 -6 -8 3
-5 -1 -20 -9 -35 -7 -14 -11 -28 -8 -31 3 -3 1 -11 -5 -18 -14 -17 -39 -153
-47 -258 -11 -128 15 -311 64 -453 28 -80 93 -217 103 -217 5 0 7 -4 4 -9 -3
-5 1 -14 9 -21 8 -7 15 -19 15 -26 0 -8 5 -14 10 -14 6 0 10 -7 10 -15 0 -9 7
-18 15 -21 8 -4 15 -12 15 -19 0 -24 248 -264 273 -265 5 0 15 -6 22 -12 34
-30 45 -38 45 -32 0 4 8 0 18 -8 51 -46 264 -131 377 -151 17 -3 53 -10 80
-16 28 -5 109 -8 180 -6 155 5 157 6 170 16 6 4 20 7 30 5 11 -2 35 3 53 11
18 7 37 11 42 8 6 -4 10 -1 10 6 0 7 3 9 6 6 4 -3 16 -1 28 5 11 7 30 13 41
15 47 8 263 130 273 155 2 4 10 8 18 8 9 0 12 5 9 10 -3 6 -1 10 5 10 13 0
200 180 200 193 0 4 12 20 26 35 14 15 32 41 40 57 8 17 27 53 44 80 16 28 29
58 30 68 0 9 5 17 12 17 6 0 8 3 5 7 -4 3 -2 12 4 20 6 7 8 13 4 13 -4 0 -3 6
3 13 15 17 58 178 73 267 15 93 19 279 7 340 -5 25 -11 60 -14 79 -3 19 -9 40
-14 46 -6 7 -7 14 -4 17 6 7 -29 113 -62 186 -13 28 -23 55 -23 58 0 4 -3 10
-8 13 -4 3 -19 28 -33 56 -14 27 -30 55 -37 62 -6 7 -15 22 -18 33 -3 11 -11
20 -16 20 -5 0 -9 5 -9 10 0 6 -9 20 -20 32 -11 12 -20 28 -20 35 0 7 -7 13
-15 13 -8 0 -15 4 -15 9 0 11 -140 156 -140 145 0 -5 -5 -1 -11 9 -5 9 -17 17
-24 17 -8 0 -15 4 -15 8 0 7 -64 48 -140 89 -71 39 -209 86 -300 104 -55 10
-257 29 -262 24z m190 -459 c12 -3 32 -8 43 -11 38 -8 179 -78 179 -88 0 -6 3
-7 7 -4 12 13 128 -91 194 -173 44 -55 109 -166 109 -186 0 -7 4 -14 9 -14 9
0 23 -52 27 -100 1 -14 3 -26 4 -27 1 -2 3 -6 4 -10 1 -5 4 -12 7 -18 7 -12 4
-301 -4 -330 -3 -11 -12 -49 -22 -83 -9 -35 -20 -71 -25 -80 -5 -10 -16 -37
-25 -61 -9 -25 -25 -57 -36 -73 -11 -15 -18 -28 -16 -28 6 0 -33 -47 -75 -91
-14 -15 -24 -29 -22 -32 2 -2 -7 -10 -21 -17 -14 -7 -25 -17 -25 -20 0 -17
-183 -124 -194 -113 -3 3 -6 1 -6 -6 0 -8 -7 -11 -15 -7 -8 3 -15 2 -15 -3 0
-4 -6 -8 -12 -9 -26 -4 -63 -10 -63 -12 0 -1 -13 -3 -30 -5 -16 -2 -54 -6 -83
-9 -29 -3 -57 -8 -62 -11 -5 -3 -11 -1 -15 5 -4 6 -12 7 -18 3 -18 -12 -57
-10 -57 2 0 6 -3 7 -8 0 -9 -13 -35 -19 -28 -6 3 5 -3 11 -15 14 -17 5 -18 3
-7 -11 14 -18 -44 14 -98 54 -17 13 -35 20 -39 16 -5 -4 -5 -2 -2 4 3 6 -11
21 -32 35 -22 13 -37 27 -34 32 2 4 -1 7 -7 7 -18 0 -142 128 -176 180 -16 25
-31 47 -34 50 -17 17 -40 72 -34 83 4 6 4 9 -1 5 -9 -8 -35 36 -35 58 0 8 -5
14 -12 14 -6 0 -8 3 -5 7 4 3 2 12 -4 20 -6 7 -8 13 -5 13 4 0 2 8 -3 18 -5 9
-12 31 -15 47 -21 108 -25 134 -29 172 -2 23 -2 45 1 47 2 3 6 31 8 63 3 55 9
102 14 113 1 3 3 10 4 15 11 71 58 170 120 255 42 57 129 150 142 150 4 0 17
11 30 25 13 14 25 25 28 25 3 0 28 13 56 30 27 16 50 27 50 25 0 -3 10 1 23 9
12 8 34 17 49 20 15 2 31 7 35 9 5 3 26 8 47 11 22 4 41 8 43 10 6 6 205 -1
231 -8z"/>
<path d="M3004 4699 c-3 -5 -9 -7 -14 -4 -4 3 -26 -2 -48 -9 -22 -8 -43 -12
-46 -9 -3 4 -6 2 -6 -3 0 -5 -20 -18 -45 -29 -25 -11 -45 -23 -45 -27 0 -5 -4
-8 -9 -8 -22 0 -146 -142 -134 -154 3 -3 1 -6 -5 -6 -6 0 -13 -13 -17 -30 -4
-16 -10 -30 -14 -30 -4 0 -8 -8 -9 -17 -3 -34 -8 -58 -13 -68 -8 -13 -3 -161
5 -200 4 -16 18 -53 31 -82 22 -49 30 -62 63 -98 7 -8 11 -15 8 -15 -3 0 13
-17 36 -37 24 -21 45 -41 46 -46 2 -4 7 -5 12 -2 4 3 13 -2 20 -10 7 -8 21
-15 31 -15 11 0 19 -3 19 -8 0 -9 72 -32 100 -32 11 0 20 -3 20 -8 0 -4 39 -6
88 -5 115 4 132 6 132 15 0 4 3 7 8 6 11 -4 102 36 102 45 0 4 6 7 13 7 19 0
116 98 152 154 34 54 60 120 59 149 -1 9 2 17 5 17 7 0 5 130 -2 180 -6 42
-55 157 -80 186 -35 42 -86 94 -93 94 -4 0 -12 7 -18 14 -6 8 -18 16 -26 18
-8 2 -23 12 -32 22 -10 10 -18 16 -18 13 0 -3 -19 1 -42 9 -23 8 -55 17 -72
20 -55 10 -156 12 -162 3z m176 -331 c0 -5 3 -7 8 -7 26 4 70 -30 92 -71 18
-33 20 -109 3 -142 -17 -36 -77 -80 -108 -80 -14 0 -25 -4 -25 -9 0 -5 -11 -4
-24 1 -13 5 -27 6 -30 3 -3 -4 -6 -1 -6 5 0 7 -6 12 -12 12 -19 1 -68 47 -68
64 0 8 -4 17 -9 21 -6 3 -9 32 -7 65 2 49 7 64 29 84 14 13 24 26 21 29 -5 5
46 21 59 19 4 -1 7 2 7 6 0 5 16 8 35 8 19 -1 35 -4 35 -8z"/>
<path d="M1237 2534 c-1 -1 -15 -4 -32 -7 -67 -12 -101 -29 -143 -69 -108
-107 -111 -253 -5 -353 47 -46 102 -74 223 -115 52 -18 107 -41 121 -51 46
-32 54 -119 16 -167 -19 -24 -68 -43 -115 -47 -72 -4 -138 33 -164 93 -11 26
-22 49 -24 51 -2 2 -39 -2 -82 -9 l-80 -13 10 -36 c32 -115 112 -200 213 -225
111 -28 174 -25 260 13 174 77 226 314 97 439 -41 40 -80 60 -202 103 -115 40
-152 61 -170 94 -21 39 -3 94 40 123 47 32 103 26 177 -21 l57 -35 25 24 c14
13 34 27 44 30 9 3 17 10 17 15 0 5 7 9 15 9 35 0 -35 84 -95 115 -42 22 -191
50 -203 39z"/>
<path d="M2876 2532 c-2 -2 -14 -5 -27 -6 -125 -16 -276 -131 -338 -258 -33
-67 -45 -127 -45 -218 1 -90 15 -145 57 -228 25 -49 116 -152 135 -152 6 0 12
-4 12 -9 0 -14 122 -70 185 -84 170 -39 357 32 475 179 9 10 16 21 17 24 0 3
10 25 21 50 33 72 41 114 40 225 0 112 -14 170 -65 260 -22 40 -141 159 -160
161 -5 0 -28 10 -53 21 -25 11 -61 24 -80 28 -36 8 -168 14 -174 7z m124 -166
c80 -12 163 -78 205 -162 25 -51 29 -70 29 -144 0 -113 -9 -143 -62 -217 -42
-57 -139 -104 -220 -107 -135 -5 -280 110 -307 244 -11 55 -8 142 6 175 7 17
12 33 11 37 -1 3 5 12 13 18 8 7 15 18 15 24 0 15 76 87 116 108 16 9 43 19
58 22 16 3 30 7 32 9 4 4 62 0 104 -7z"/>
<path d="M3855 2528 c-193 -57 -320 -173 -366 -333 -15 -53 -19 -204 -6 -269
12 -62 62 -157 109 -206 102 -108 199 -151 348 -156 120 -4 177 7 266 51 66
32 164 107 164 125 0 4 -24 33 -54 64 l-55 56 -74 -54 c-87 -61 -135 -77 -234
-72 -122 6 -228 73 -274 176 -32 70 -36 182 -10 252 30 77 108 158 181 185 83
32 186 26 270 -14 36 -17 80 -45 99 -62 19 -17 37 -31 41 -31 3 0 32 26 63 58
l58 59 -51 46 c-61 55 -153 103 -235 122 -65 15 -194 17 -240 3z"/>
<path d="M1739 2516 c-1 -1 -3 -36 -4 -78 l-4 -78 125 0 c68 0 125 -3 125 -7
1 -5 3 -170 5 -368 1 -198 3 -369 3 -380 1 -19 7 -21 86 -20 78 0 85 2 86 20
1 11 2 184 2 385 l2 365 107 1 c59 1 113 4 120 7 15 5 18 122 5 144 -6 9 -87
12 -332 11 -179 -1 -326 -2 -326 -2z"/>
<path d="M4450 2510 c-4 -3 -7 -212 -6 -465 l1 -460 74 -1 c51 0 75 3 78 13 3
7 9 10 14 7 12 -7 11 7 0 26 -6 8 -7 18 -4 23 3 4 4 71 4 148 -1 76 0 139 2
139 3 0 61 -66 130 -147 201 -239 165 -212 285 -214 56 -1 105 1 108 4 6 5
-134 176 -220 267 -83 90 -158 177 -175 206 l-17 27 88 91 c49 50 88 91 88 91
0 0 36 38 81 85 80 84 144 159 137 161 -1 1 -50 2 -106 3 l-104 2 -46 -55
c-26 -30 -54 -62 -62 -71 -46 -49 -162 -179 -175 -195 -13 -18 -14 -2 -15 152
l0 171 -76 -1 c-42 -1 -79 -4 -84 -7z"/>
<path d="M2154 1234 c-114 -56 -162 -174 -117 -286 36 -90 101 -132 203 -133
113 0 192 64 206 168 l7 47 -107 0 -106 0 0 -35 0 -35 60 0 c33 0 60 -2 60 -5
0 -19 -37 -56 -66 -65 -98 -33 -194 36 -194 138 0 49 17 86 55 122 46 43 154
35 195 -15 12 -14 16 -13 41 11 27 26 28 29 11 43 -38 35 -73 51 -124 57 -29
3 -58 7 -64 9 -7 2 -34 -7 -60 -21z"/>
<path d="M2640 1185 c-1 -30 -1 -98 -1 -150 0 -52 0 -122 1 -155 l0 -61 107 3
107 3 7 32 6 32 -76 3 -76 3 0 58 -1 57 73 0 c41 0 73 4 74 10 6 56 8 55 -71
60 l-75 5 0 40 0 40 71 3 c63 2 73 5 77 23 12 45 1 49 -114 49 l-109 0 0 -55z"/>
<path d="M3532 1033 l3 -208 25 -1 c48 -3 50 5 50 217 l0 199 -40 0 -40 0 2
-207z m57 -190 c-6 -7 -15 -10 -20 -7 -13 8 -3 21 15 21 12 0 13 -4 5 -14z"/>
<path d="M3812 1033 l3 -208 106 -3 c104 -3 107 -2 111 21 8 42 0 47 -76 47
l-71 0 0 60 0 60 75 0 76 0 -1 35 0 35 -71 0 c-77 0 -81 3 -80 55 l1 30 75 5
75 5 0 33 0 32 -113 0 -112 0 2 -207z"/>
<path d="M3044 1028 l1 -203 33 -3 32 -3 1 73 c0 40 0 94 -1 121 -1 26 2 47 7
46 4 0 33 -32 63 -71 30 -38 60 -75 65 -81 6 -7 24 -28 41 -48 53 -61 57 -47
58 176 l1 196 -35 -3 -35 -3 0 -107 c-1 -59 -3 -109 -5 -112 -3 -2 -34 32 -70
75 -112 138 -122 149 -139 149 -16 0 -17 -19 -17 -202z"/>
</g>
</svg>
